<?xml version="1.0" encoding="UTF-8"?>
<!DOCTYPE svg PUBLIC "-//W3C//DTD SVG 1.1//EN" "http://www.w3.org/Graphics/SVG/1.1/DTD/svg11.dtd">
<svg xmlns="http://www.w3.org/2000/svg" version="1.1" width="539px" height="188px" style="shape-rendering:geometricPrecision; text-rendering:geometricPrecision; image-rendering:optimizeQuality; fill-rule:evenodd; clip-rule:evenodd" xmlns:xlink="http://www.w3.org/1999/xlink">
<g><path style="opacity:1" fill="#f8f8f9" d="M -0.5,-0.5 C 179.167,-0.5 358.833,-0.5 538.5,-0.5C 538.5,62.1667 538.5,124.833 538.5,187.5C 358.833,187.5 179.167,187.5 -0.5,187.5C -0.5,124.833 -0.5,62.1667 -0.5,-0.5 Z"/></g>
<g><path style="opacity:1" fill="#036eab" d="M 101.5,43.5 C 101.664,40.8127 101.497,38.146 101,35.5C 100.25,34.8742 99.4162,34.3742 98.5,34C 99.7649,32.6626 100.265,31.1626 100,29.5C 96.5915,30.6219 93.0915,30.7886 89.5,30C 87.5754,27.2929 84.9088,25.7929 81.5,25.5C 79.6031,25.7282 78.2697,26.7282 77.5,28.5C 76.6858,26.2338 76.1858,23.9005 76,21.5C 74.2252,23.8736 73.0586,26.3736 72.5,29C 73.3802,30.3561 73.7135,31.8561 73.5,33.5C 72.056,29.8719 71.056,26.0385 70.5,22C 70.8333,21.6667 71.1667,21.3333 71.5,21C 70.3333,20.5 69.5,19.6667 69,18.5C 68.1072,19.7112 67.2739,19.7112 66.5,18.5C 67.9935,17.8589 68.9935,16.8589 69.5,15.5C 71.516,12.8562 74.1827,12.0228 77.5,13C 86.7042,18.4347 96.0376,23.6013 105.5,28.5C 106.66,32.4589 106.827,36.4589 106,40.5C 104.385,41.3862 102.885,42.3862 101.5,43.5 Z"/></g>
<g><path style="opacity:1" fill="#03659b" d="M 69.5,15.5 C 68.9935,16.8589 67.9935,17.8589 66.5,18.5C 67.2739,19.7112 68.1072,19.7112 69,18.5C 69.5,19.6667 70.3333,20.5 71.5,21C 71.1667,21.3333 70.8333,21.6667 70.5,22C 71.056,26.0385 72.056,29.8719 73.5,33.5C 73.1667,36.1667 72.8333,38.8333 72.5,41.5C 71.1147,42.6138 69.6147,43.6138 68,44.5C 67.5008,49.1548 67.3342,53.8215 67.5,58.5C 66.6745,54.0181 66.1745,49.3514 66,44.5C 64.0266,43.3601 62.1933,42.0267 60.5,40.5C 59.8055,36.8099 58.9722,33.1432 58,29.5C 57.6667,29.8333 57.3333,30.1667 57,30.5C 56.7265,28.6711 55.8932,27.1711 54.5,26C 56.8418,24.6081 56.8418,23.7748 54.5,23.5C 59.3335,20.5824 64.3335,17.9157 69.5,15.5 Z"/></g>
<g><path style="opacity:1" fill="#e2ecf0" d="M 82.5,42.5 C 78.8822,44.1373 75.5488,46.1373 72.5,48.5C 72.7454,57.2417 72.0787,65.9084 70.5,74.5C 69.8182,73.7573 69.1515,73.0906 68.5,72.5C 68.7166,67.7697 68.3833,63.1031 67.5,58.5C 67.3342,53.8215 67.5008,49.1548 68,44.5C 69.6147,43.6138 71.1147,42.6138 72.5,41.5C 77.9708,38.5966 83.3041,35.43 88.5,32C 91.8333,31.3333 95.1667,31.3333 98.5,32C 93.2726,35.7724 87.9393,39.2724 82.5,42.5 Z"/></g>
<g><path style="opacity:1" fill="#043f65" d="M 51.5,36.5 C 52.4959,36.4142 53.3292,36.7476 54,37.5C 55.9145,48.1598 58.9145,58.4931 63,68.5C 64.3086,70.8912 65.3086,70.8912 66,68.5C 66.1216,70.437 66.955,71.7703 68.5,72.5C 69.1515,73.0906 69.8182,73.7573 70.5,74.5C 72.0787,65.9084 72.7454,57.2417 72.5,48.5C 74.5816,48.6243 76.0816,49.6243 77,51.5C 77.1698,61.6751 77.6698,71.6751 78.5,81.5C 78.5,82.1667 78.5,82.8333 78.5,83.5C 78.5,101.5 78.5,119.5 78.5,137.5C 77.9288,117.648 77.2621,101.648 76.5,89.5C 74.7988,89.9662 73.2988,89.9662 72,89.5C 71.5357,90.0944 71.369,90.7611 71.5,91.5C 71.1667,91.5 70.8333,91.5 70.5,91.5C 66.772,88.4411 62.772,85.7744 58.5,83.5C 60.4109,83.4257 61.5776,82.4257 62,80.5C 62.7175,81.4506 63.5509,81.6172 64.5,81C 61.3007,77.4338 58.4674,73.6004 56,69.5C 53.5445,61.7588 52.2112,54.0921 52,46.5C 51.6667,46.8333 51.3333,47.1667 51,47.5C 50.3219,43.7789 50.4886,40.1122 51.5,36.5 Z"/></g>
<g><path style="opacity:1" fill="#1678aa" d="M 101.5,43.5 C 100.532,41.3926 100.198,39.0593 100.5,36.5C 95.5268,39.1213 90.5268,41.7879 85.5,44.5C 85.0269,43.0937 84.0269,42.427 82.5,42.5C 87.9393,39.2724 93.2726,35.7724 98.5,32C 95.1667,31.3333 91.8333,31.3333 88.5,32C 83.3041,35.43 77.9708,38.5966 72.5,41.5C 72.8333,38.8333 73.1667,36.1667 73.5,33.5C 73.7135,31.8561 73.3802,30.3561 72.5,29C 73.0586,26.3736 74.2252,23.8736 76,21.5C 76.1858,23.9005 76.6858,26.2338 77.5,28.5C 78.2697,26.7282 79.6031,25.7282 81.5,25.5C 84.9088,25.7929 87.5754,27.2929 89.5,30C 93.0915,30.7886 96.5915,30.6219 100,29.5C 100.265,31.1626 99.7649,32.6626 98.5,34C 99.4162,34.3742 100.25,34.8742 101,35.5C 101.497,38.146 101.664,40.8127 101.5,43.5 Z"/></g>
<g><path style="opacity:1" fill="#1b537e" d="M 54.5,23.5 C 56.8418,23.7748 56.8418,24.6081 54.5,26C 55.8932,27.1711 56.7265,28.6711 57,30.5C 57.3333,30.1667 57.6667,29.8333 58,29.5C 58.9722,33.1432 59.8055,36.8099 60.5,40.5C 62.1933,42.0267 64.0266,43.3601 66,44.5C 66.1745,49.3514 66.6745,54.0181 67.5,58.5C 68.3833,63.1031 68.7166,67.7697 68.5,72.5C 66.955,71.7703 66.1216,70.437 66,68.5C 65.3086,70.8912 64.3086,70.8912 63,68.5C 58.9145,58.4931 55.9145,48.1598 54,37.5C 53.3292,36.7476 52.4959,36.4142 51.5,36.5C 50.1667,35.8333 48.8333,35.1667 47.5,34.5C 46.2196,33.0687 44.5529,32.4021 42.5,32.5C 42.5,46.5 42.5,60.5 42.5,74.5C 41.3391,60.0058 41.1724,45.3391 42,30.5C 45.9788,27.7624 50.1454,25.429 54.5,23.5 Z"/></g>
<g><path style="opacity:1" fill="#012344" d="M 47.5,34.5 C 47.3551,43.2034 47.8551,51.8701 49,60.5C 49.3333,58.8333 49.6667,57.1667 50,55.5C 50.1667,56.5 50.3333,57.5 50.5,58.5C 49.2282,64.5054 49.2282,70.5054 50.5,76.5C 49.5,76.5 48.5,76.5 47.5,76.5C 45.8333,75.8333 44.1667,75.1667 42.5,74.5C 42.5,60.5 42.5,46.5 42.5,32.5C 44.5529,32.4021 46.2196,33.0687 47.5,34.5 Z"/></g>
<g><path style="opacity:1" fill="#226792" d="M 82.5,42.5 C 84.0269,42.427 85.0269,43.0937 85.5,44.5C 82.8607,46.309 80.6941,48.6424 79,51.5C 78.5002,61.4944 78.3335,71.4944 78.5,81.5C 77.6698,71.6751 77.1698,61.6751 77,51.5C 76.0816,49.6243 74.5816,48.6243 72.5,48.5C 75.5488,46.1373 78.8822,44.1373 82.5,42.5 Z"/></g>
<g><path style="opacity:1" fill="#f9a13a" d="M 104.5,46.5 C 104.938,46.4346 105.272,46.6012 105.5,47C 104.001,49.3279 102.334,51.4946 100.5,53.5C 97.1455,56.5049 93.8122,59.5049 90.5,62.5C 88.2279,61.5589 86.2279,60.2255 84.5,58.5C 90.4676,53.5086 97.1342,49.5086 104.5,46.5 Z"/></g>
<g><path style="opacity:1" fill="#48657c" d="M 390.5,50.5 C 372.5,50.5 354.5,50.5 336.5,50.5C 335.5,50.5 334.5,50.5 333.5,50.5C 333.5,70.1667 333.5,89.8333 333.5,109.5C 332.503,89.6736 332.17,69.6736 332.5,49.5C 352.007,49.1697 371.341,49.503 390.5,50.5 Z"/></g>
<g><path style="opacity:1" fill="#517185" d="M 466.5,50.5 C 458.981,50.175 451.648,50.5084 444.5,51.5C 443.624,51.6309 442.957,51.2975 442.5,50.5C 450.657,49.1796 458.657,49.1796 466.5,50.5 Z"/></g>
<g><path style="opacity:1" fill="#4b6e87" d="M 504.5,50.5 C 512.01,49.1801 519.677,49.1801 527.5,50.5C 527.376,51.1067 527.043,51.44 526.5,51.5C 519.352,50.5084 512.019,50.175 504.5,50.5 Z"/></g>
<g><path style="opacity:1" fill="#0a3a5d" d="M 299.5,50.5 C 301.833,50.5 304.167,50.5 306.5,50.5C 318.883,51.5798 323.717,58.2464 321,70.5C 319.348,73.866 316.848,76.1994 313.5,77.5C 312.146,79.1671 310.48,80.5004 308.5,81.5C 306.423,80.0629 304.09,79.3962 301.5,79.5C 301.5,78.5 301.5,77.5 301.5,76.5C 300.022,76.762 298.689,76.4287 297.5,75.5C 297.938,74.4937 298.604,74.4937 299.5,75.5C 300.298,75.0431 300.631,74.3764 300.5,73.5C 304.874,70.7637 305.54,67.2637 302.5,63C 289.838,62.5001 277.171,62.3334 264.5,62.5C 273.991,61.67 283.658,61.17 293.5,61C 290.167,60.6667 286.833,60.3333 283.5,60C 285.833,59.6667 288.167,59.3333 290.5,59C 286.232,58.4661 282.232,57.1327 278.5,55C 279.623,53.9563 280.956,53.2896 282.5,53C 272.167,52.6667 261.833,52.3333 251.5,52C 267.672,51.8314 283.672,51.3314 299.5,50.5 Z"/></g>
<g><path style="opacity:1" fill="#fab748" d="M 133.5,55.5 C 132.833,55.5 132.5,55.8333 132.5,56.5C 130.847,56.6596 129.514,57.3263 128.5,58.5C 126.5,59.1667 124.5,59.8333 122.5,60.5C 117.495,51.4344 110.162,49.101 100.5,53.5C 102.334,51.4946 104.001,49.3279 105.5,47C 105.272,46.6012 104.938,46.4346 104.5,46.5C 106.189,44.0003 108.522,43.1669 111.5,44C 118.769,48.1326 126.102,51.966 133.5,55.5 Z"/></g>
<g><path style="opacity:1" fill="#083c60" d="M 236.5,67.5 C 236.662,69.5273 236.495,71.5273 236,73.5C 234.345,71.2533 234.012,68.9199 235,66.5C 233.807,68.6051 232.14,70.2718 230,71.5C 228.657,70.7865 227.324,71.1198 226,72.5C 224.34,71.8336 222.506,71.8336 220.5,72.5C 220.551,68.1395 218.551,64.9729 214.5,63C 202.833,62.3333 191.167,62.3333 179.5,63C 175.538,64.1239 173.205,66.6239 172.5,70.5C 172.565,70.0618 172.399,69.7284 172,69.5C 168.556,72.9719 164.389,74.9719 159.5,75.5C 158.749,76.376 158.249,77.376 158,78.5C 157.292,77.6195 156.458,76.9528 155.5,76.5C 154.11,66.8866 156.777,58.72 163.5,52C 166.363,50.6011 169.363,49.6011 172.5,49C 189.539,48.0898 206.539,48.4231 223.5,50C 231.892,52.8831 236.225,58.7164 236.5,67.5 Z"/></g>
<g><path style="opacity:1" fill="#023355" d="M 336.5,50.5 C 354.5,50.5 372.5,50.5 390.5,50.5C 404.144,52.0125 409.644,59.6792 407,73.5C 406.574,77.9898 404.741,81.6565 401.5,84.5C 401.082,83.7784 400.416,83.2784 399.5,83C 400.167,82.6667 400.833,82.3333 401.5,82C 401.106,78.6587 402.439,75.3254 405.5,72C 402.172,72.4752 398.838,73.3086 395.5,74.5C 394.28,73.2889 393.113,73.2889 392,74.5C 391.026,72.1224 390.359,72.4557 390,75.5C 389.329,76.2524 388.496,76.5858 387.5,76.5C 389.487,73.1415 389.987,69.4748 389,65.5C 388.097,64.2986 386.931,63.4652 385.5,63C 373.838,62.5001 362.171,62.3335 350.5,62.5C 349.167,67.8333 349.167,73.1667 350.5,78.5C 360.992,79.3304 371.659,79.8304 382.5,80C 373.5,80.3333 364.5,80.6667 355.5,81C 356.167,81.3333 356.833,81.6667 357.5,82C 355.828,84.0787 354.161,84.412 352.5,83C 352.905,82.0546 353.572,81.3879 354.5,81C 348.251,79.8539 342.251,78.0206 336.5,75.5C 335.749,76.376 335.249,77.376 335,78.5C 333.905,68.9087 334.405,59.5754 336.5,50.5 Z"/></g>
<g><path style="opacity:1" fill="#053457" d="M 466.5,50.5 C 472.813,56.4784 479.146,62.4784 485.5,68.5C 491.854,62.4784 498.187,56.4784 504.5,50.5C 512.019,50.175 519.352,50.5084 526.5,51.5C 516.87,59.9602 507.37,68.6269 498,77.5C 497.333,78.1667 497.333,78.8333 498,79.5C 500.372,81.7032 502.539,84.0365 504.5,86.5C 503.153,87.0283 501.819,87.195 500.5,87C 499.167,86.3333 499.167,85.6667 500.5,85C 498.36,84.0267 496.693,82.5267 495.5,80.5C 492.965,82.8501 489.965,84.3501 486.5,85C 484.627,85.9529 484.294,87.1196 485.5,88.5C 484.391,88.5569 483.391,88.8902 482.5,89.5C 481.491,88.0609 481.824,86.7276 483.5,85.5C 478.735,83.962 475.235,80.962 473,76.5C 472.768,79.738 471.268,82.238 468.5,84C 470.612,84.9057 471.445,86.4057 471,88.5C 470.667,87.8333 470.333,87.1667 470,86.5C 468.371,91.4105 465.538,92.4105 461.5,89.5C 464.811,85.8534 468.145,82.1867 471.5,78.5C 462.785,69.1186 453.785,60.1186 444.5,51.5C 451.648,50.5084 458.981,50.175 466.5,50.5 Z"/></g>
<g><path style="opacity:1" fill="#003055" d="M 299.5,50.5 C 283.672,51.3314 267.672,51.8314 251.5,52C 261.833,52.3333 272.167,52.6667 282.5,53C 280.956,53.2896 279.623,53.9563 278.5,55C 282.232,57.1327 286.232,58.4661 290.5,59C 288.167,59.3333 285.833,59.6667 283.5,60C 286.833,60.3333 290.167,60.6667 293.5,61C 283.658,61.17 273.991,61.67 264.5,62.5C 263.518,65.9619 263.185,69.6286 263.5,73.5C 261.692,70.579 260.859,66.9123 261,62.5C 260.028,64.3049 258.861,65.9716 257.5,67.5C 254.839,66.9052 252.672,67.9052 251,70.5C 249.426,65.4716 248.259,60.4716 247.5,55.5C 247.5,53.8333 247.5,52.1667 247.5,50.5C 264.833,50.5 282.167,50.5 299.5,50.5 Z"/></g>
<g><path style="opacity:1" fill="#fac96e" d="M 122.5,60.5 C 120.365,62.0709 118.032,63.4043 115.5,64.5C 114.962,62.8828 114.629,61.2161 114.5,59.5C 107.485,56.602 101.152,57.7686 95.5,63C 97.0629,63.7589 98.0629,64.9256 98.5,66.5C 95.5152,65.6743 92.8485,64.341 90.5,62.5C 93.8122,59.5049 97.1455,56.5049 100.5,53.5C 110.162,49.101 117.495,51.4344 122.5,60.5 Z"/></g>
<g><path style="opacity:1" fill="#013254" d="M 47.5,34.5 C 48.8333,35.1667 50.1667,35.8333 51.5,36.5C 50.4886,40.1122 50.3219,43.7789 51,47.5C 51.3333,47.1667 51.6667,46.8333 52,46.5C 52.2112,54.0921 53.5445,61.7588 56,69.5C 58.4674,73.6004 61.3007,77.4338 64.5,81C 63.5509,81.6172 62.7175,81.4506 62,80.5C 61.5776,82.4257 60.4109,83.4257 58.5,83.5C 54.6277,81.4026 50.961,79.0692 47.5,76.5C 48.5,76.5 49.5,76.5 50.5,76.5C 49.2282,70.5054 49.2282,64.5054 50.5,58.5C 50.3333,57.5 50.1667,56.5 50,55.5C 49.6667,57.1667 49.3333,58.8333 49,60.5C 47.8551,51.8701 47.3551,43.2034 47.5,34.5 Z"/></g>
<g><path style="opacity:1" fill="#fad383" d="M 115.5,64.5 C 114.833,64.5 114.5,64.8333 114.5,65.5C 111.492,66.4202 108.659,67.7535 106,69.5C 105.5,75.8246 105.334,82.1579 105.5,88.5C 105.5,91.1667 105.5,93.8333 105.5,96.5C 105.784,98.4147 105.451,100.081 104.5,101.5C 104.5,91.1667 104.5,80.8333 104.5,70.5C 103.5,70.5 102.5,70.5 101.5,70.5C 101.918,69.7784 102.584,69.2784 103.5,69C 101.509,68.6264 99.842,67.793 98.5,66.5C 98.0629,64.9256 97.0629,63.7589 95.5,63C 101.152,57.7686 107.485,56.602 114.5,59.5C 114.629,61.2161 114.962,62.8828 115.5,64.5 Z"/></g>
<g><path style="opacity:1" fill="#415d72" d="M 416.5,49.5 C 422.5,49.5 428.5,49.5 434.5,49.5C 434.5,69.5 434.5,89.5 434.5,109.5C 428.5,109.5 422.5,109.5 416.5,109.5C 416.5,89.5 416.5,69.5 416.5,49.5 Z"/></g>
<g><path style="opacity:1" fill="#04669f" d="M 38.5,53.5 C 38.5,61.8333 38.5,70.1667 38.5,78.5C 37.209,78.2627 36.209,78.596 35.5,79.5C 29.0452,82.6272 23.3785,81.4605 18.5,76C 15.964,75.6608 13.464,75.1608 11,74.5C 10.2352,74.5699 9.7352,74.9033 9.5,75.5C 8.16667,74.5 6.83333,73.5 5.5,72.5C 5.5,72.1667 5.5,71.8333 5.5,71.5C 16.3321,65.2495 27.3321,59.2495 38.5,53.5 Z"/></g>
<g><path style="opacity:1" fill="#f5f6f6" d="M 220.5,72.5 C 220.666,78.1764 220.499,83.8431 220,89.5C 219.027,93.4064 216.527,95.573 212.5,96C 201.5,96.6667 190.5,96.6667 179.5,96C 175.605,95.0668 173.438,92.5668 173,88.5C 172.501,82.5092 172.334,76.5092 172.5,70.5C 173.205,66.6239 175.538,64.1239 179.5,63C 191.167,62.3333 202.833,62.3333 214.5,63C 218.551,64.9729 220.551,68.1395 220.5,72.5 Z"/></g>
<g><path style="opacity:1" fill="#043352" d="M 247.5,55.5 C 248.259,60.4716 249.426,65.4716 251,70.5C 252.672,67.9052 254.839,66.9052 257.5,67.5C 258.861,65.9716 260.028,64.3049 261,62.5C 260.859,66.9123 261.692,70.579 263.5,73.5C 275.833,73.5 288.167,73.5 300.5,73.5C 300.631,74.3764 300.298,75.0431 299.5,75.5C 298.604,74.4937 297.938,74.4937 297.5,75.5C 298.689,76.4287 300.022,76.762 301.5,76.5C 301.5,77.5 301.5,78.5 301.5,79.5C 304.09,79.3962 306.423,80.0629 308.5,81.5C 310.48,80.5004 312.146,79.1671 313.5,77.5C 314.167,78.1667 314.833,78.8333 315.5,79.5C 311.551,79.6932 311.551,80.1932 315.5,81C 314,82.5 312.5,84 311,85.5C 310.667,85.1667 310.333,84.8333 310,84.5C 309.277,86.7899 308.11,87.7899 306.5,87.5C 305.118,86.1995 303.452,85.3661 301.5,85C 289.171,84.5001 276.838,84.3335 264.5,84.5C 272.323,83.6708 280.323,83.1708 288.5,83C 282.472,82.8303 276.472,82.3303 270.5,81.5C 267.417,78.9964 264.417,79.3298 261.5,82.5C 259.759,79.409 257.093,77.7423 253.5,77.5C 252.149,75.981 250.649,74.6477 249,73.5C 248.819,70.3054 248.319,67.3054 247.5,64.5C 247.5,61.5 247.5,58.5 247.5,55.5 Z"/></g>
<g><path style="opacity:1" fill="#f2f4f4" d="M 264.5,62.5 C 277.171,62.3334 289.838,62.5001 302.5,63C 305.54,67.2637 304.874,70.7637 300.5,73.5C 288.167,73.5 275.833,73.5 263.5,73.5C 263.185,69.6286 263.518,65.9619 264.5,62.5 Z"/></g>
<g><path style="opacity:1" fill="#f98100" d="M 128.5,58.5 C 130.646,60.0793 130.812,62.0793 129,64.5C 128.417,62.9984 127.584,61.6651 126.5,60.5C 125.9,70.8708 123.066,80.8708 118,90.5C 115.244,93.9267 111.91,96.5934 108,98.5C 107.292,97.6195 106.458,96.9528 105.5,96.5C 105.5,93.8333 105.5,91.1667 105.5,88.5C 106.859,89.0065 107.859,90.0065 108.5,91.5C 115.914,86.184 119.248,78.684 118.5,69C 117.333,68.5 116.5,67.6667 116,66.5C 115.692,67.3081 115.192,67.9747 114.5,68.5C 113.438,67.5754 113.438,66.5754 114.5,65.5C 114.5,64.8333 114.833,64.5 115.5,64.5C 118.032,63.4043 120.365,62.0709 122.5,60.5C 124.5,59.8333 126.5,59.1667 128.5,58.5 Z"/></g>
<g><path style="opacity:1" fill="#f4f5f6" d="M 350.5,62.5 C 362.171,62.3335 373.838,62.5001 385.5,63C 386.931,63.4652 388.097,64.2986 389,65.5C 389.987,69.4748 389.487,73.1415 387.5,76.5C 386.391,76.5569 385.391,76.8902 384.5,77.5C 373.167,77.5 361.833,77.5 350.5,77.5C 350.5,72.5 350.5,67.5 350.5,62.5 Z"/></g>
<g><path style="opacity:1" fill="#597589" d="M 306.5,50.5 C 304.167,50.5 301.833,50.5 299.5,50.5C 282.167,50.5 264.833,50.5 247.5,50.5C 247.5,52.1667 247.5,53.8333 247.5,55.5C 247.5,58.5 247.5,61.5 247.5,64.5C 247.5,79.5 247.5,94.5 247.5,109.5C 246.503,89.6736 246.17,69.6736 246.5,49.5C 266.674,49.1695 286.674,49.5029 306.5,50.5 Z"/></g>
<g><path style="opacity:1" fill="#002c4e" d="M 417.5,50.5 C 422.833,50.5 428.167,50.5 433.5,50.5C 433.5,69.8333 433.5,89.1667 433.5,108.5C 428.167,108.5 422.833,108.5 417.5,108.5C 417.5,89.1667 417.5,69.8333 417.5,50.5 Z"/></g>
<g><path style="opacity:1" fill="#ef6e16" d="M 133.5,55.5 C 134.833,73.5 134.833,91.5 133.5,109.5C 133.667,95.8293 133.5,82.1626 133,68.5C 132.272,77.6417 130.606,86.6417 128,95.5C 123.345,108.362 114.511,113.028 101.5,109.5C 101.969,106.661 101.969,103.995 101.5,101.5C 102.391,102.11 103.391,102.443 104.5,102.5C 105.807,103.153 107.14,103.82 108.5,104.5C 114.068,101.769 118.568,97.7686 122,92.5C 125.735,83.2954 129.068,73.9621 132,64.5C 132.497,61.854 132.664,59.1873 132.5,56.5C 132.5,55.8333 132.833,55.5 133.5,55.5 Z"/></g>
<g><path style="opacity:1" fill="#f98d02" d="M 114.5,65.5 C 113.438,66.5754 113.438,67.5754 114.5,68.5C 115.192,67.9747 115.692,67.3081 116,66.5C 116.5,67.6667 117.333,68.5 118.5,69C 119.248,78.684 115.914,86.184 108.5,91.5C 107.859,90.0065 106.859,89.0065 105.5,88.5C 105.334,82.1579 105.5,75.8246 106,69.5C 108.659,67.7535 111.492,66.4202 114.5,65.5 Z"/></g>
<g><path style="opacity:1" fill="#032b4e" d="M 336.5,50.5 C 334.405,59.5754 333.905,68.9087 335,78.5C 335.249,77.376 335.749,76.376 336.5,75.5C 342.251,78.0206 348.251,79.8539 354.5,81C 353.572,81.3879 352.905,82.0546 352.5,83C 354.161,84.412 355.828,84.0787 357.5,82C 356.833,81.6667 356.167,81.3333 355.5,81C 364.5,80.6667 373.5,80.3333 382.5,80C 371.659,79.8304 360.992,79.3304 350.5,78.5C 362.012,78.8281 373.346,78.4948 384.5,77.5C 385.391,76.8902 386.391,76.5569 387.5,76.5C 388.496,76.5858 389.329,76.2524 390,75.5C 390.359,72.4557 391.026,72.1224 392,74.5C 393.113,73.2889 394.28,73.2889 395.5,74.5C 398.838,73.3086 402.172,72.4752 405.5,72C 402.439,75.3254 401.106,78.6587 401.5,82C 400.833,82.3333 400.167,82.6667 399.5,83C 400.416,83.2784 401.082,83.7784 401.5,84.5C 398.531,87.4811 394.864,89.1477 390.5,89.5C 397.35,96.1837 404.35,102.684 411.5,109C 403.833,109.667 396.167,109.667 388.5,109C 382.242,102.911 376.242,96.7448 370.5,90.5C 363.687,89.5088 356.687,89.1755 349.5,89.5C 349.5,96.1667 349.5,102.833 349.5,109.5C 344.167,109.5 338.833,109.5 333.5,109.5C 333.5,89.8333 333.5,70.1667 333.5,50.5C 334.5,50.5 335.5,50.5 336.5,50.5 Z"/></g>
<g><path style="opacity:1" fill="#edf3f5" d="M 9.5,75.5 C 9.7352,74.9033 10.2352,74.5699 11,74.5C 13.464,75.1608 15.964,75.6608 18.5,76C 23.3785,81.4605 29.0452,82.6272 35.5,79.5C 41.4689,82.4844 47.4689,85.4844 53.5,88.5C 55.6807,90.0179 58.1807,91.0179 61,91.5C 61.7648,91.4301 62.2648,91.0967 62.5,90.5C 63.3382,90.8417 63.6716,91.5084 63.5,92.5C 61.3437,94.841 58.8437,96.841 56,98.5C 55.5001,113.163 55.3334,127.83 55.5,142.5C 55.5,142.833 55.5,143.167 55.5,143.5C 53.461,142.089 52.461,140.089 52.5,137.5C 52.8254,129.648 52.492,121.982 51.5,114.5C 51.6659,109.489 51.4993,104.489 51,99.5C 40.5267,93.3498 30.0267,87.3498 19.5,81.5C 16.5342,79.0116 13.2009,77.0116 9.5,75.5 Z"/></g>
<g><path style="opacity:1" fill="#e45a03" d="M 83.5,58.5 C 83.8333,58.5 84.1667,58.5 84.5,58.5C 86.2279,60.2255 88.2279,61.5589 90.5,62.5C 92.8485,64.341 95.5152,65.6743 98.5,66.5C 99.842,67.793 101.509,68.6264 103.5,69C 102.584,69.2784 101.918,69.7784 101.5,70.5C 101.5,80.8333 101.5,91.1667 101.5,101.5C 101.969,103.995 101.969,106.661 101.5,109.5C 114.511,113.028 123.345,108.362 128,95.5C 130.606,86.6417 132.272,77.6417 133,68.5C 133.5,82.1626 133.667,95.8293 133.5,109.5C 126.369,112.899 119.369,116.566 112.5,120.5C 108.922,118.642 105.422,118.642 102,120.5C 101.683,118.699 101.016,118.366 100,119.5C 96.9978,119.003 94.9978,117.337 94,114.5C 92.9625,111.595 91.7958,108.761 90.5,106C 91.0217,103.519 91.0217,101.186 90.5,99C 89.5838,98.6258 88.7504,98.1258 88,97.5C 86.7372,90.3802 85.9038,83.2135 85.5,76C 85.5195,72.5819 85.8528,69.2485 86.5,66C 85.8906,64.0517 85.224,62.2184 84.5,60.5C 84.1667,60.5 83.8333,60.5 83.5,60.5C 83.5,59.8333 83.5,59.1667 83.5,58.5 Z"/></g>
<g><path style="opacity:1" fill="#faf5f1" d="M 101.5,70.5 C 102.5,70.5 103.5,70.5 104.5,70.5C 104.5,80.8333 104.5,91.1667 104.5,101.5C 104.5,101.833 104.5,102.167 104.5,102.5C 103.391,102.443 102.391,102.11 101.5,101.5C 101.5,91.1667 101.5,80.8333 101.5,70.5 Z"/></g>
<g><path style="opacity:1" fill="#052c50" d="M 482.5,89.5 C 476.338,96.4955 469.671,102.996 462.5,109C 454.5,109.667 446.5,109.667 438.5,109C 446.198,102.492 453.864,95.9921 461.5,89.5C 465.538,92.4105 468.371,91.4105 470,86.5C 470.333,87.1667 470.667,87.8333 471,88.5C 471.445,86.4057 470.612,84.9057 468.5,84C 471.268,82.238 472.768,79.738 473,76.5C 475.235,80.962 478.735,83.962 483.5,85.5C 481.824,86.7276 481.491,88.0609 482.5,89.5 Z"/></g>
<g><path style="opacity:1" fill="#4f6a7d" d="M 350.5,62.5 C 350.5,67.5 350.5,72.5 350.5,77.5C 361.833,77.5 373.167,77.5 384.5,77.5C 373.346,78.4948 362.012,78.8281 350.5,78.5C 349.167,73.1667 349.167,67.8333 350.5,62.5 Z"/></g>
<g><path style="opacity:1" fill="#faeadc" d="M 83.5,58.5 C 83.5,59.1667 83.5,59.8333 83.5,60.5C 83.1689,86.3388 83.5022,112.005 84.5,137.5C 84.44,138.043 84.1067,138.376 83.5,138.5C 82.1707,111.67 82.1707,85.003 83.5,58.5 Z"/></g>
<g><path style="opacity:1" fill="#2b7ea8" d="M 38.5,53.5 C 39.1666,61.0104 39.8333,68.6771 40.5,76.5C 46.4018,79.9416 52.0685,83.6083 57.5,87.5C 56.4324,88.4345 55.099,88.7678 53.5,88.5C 47.4689,85.4844 41.4689,82.4844 35.5,79.5C 36.209,78.596 37.209,78.2627 38.5,78.5C 38.5,70.1667 38.5,61.8333 38.5,53.5 Z"/></g>
<g><path style="opacity:1" fill="#042c4f" d="M 504.5,86.5 C 512.963,93.7928 521.296,101.293 529.5,109C 521.5,109.667 513.5,109.667 505.5,109C 498.631,102.298 491.964,95.4649 485.5,88.5C 484.294,87.1196 484.627,85.9529 486.5,85C 489.965,84.3501 492.965,82.8501 495.5,80.5C 496.693,82.5267 498.36,84.0267 500.5,85C 499.167,85.6667 499.167,86.3333 500.5,87C 501.819,87.195 503.153,87.0283 504.5,86.5 Z"/></g>
<g><path style="opacity:1" fill="#082d4f" d="M 247.5,64.5 C 248.319,67.3054 248.819,70.3054 249,73.5C 250.649,74.6477 252.149,75.981 253.5,77.5C 257.093,77.7423 259.759,79.409 261.5,82.5C 264.417,79.3298 267.417,78.9964 270.5,81.5C 276.472,82.3303 282.472,82.8303 288.5,83C 280.323,83.1708 272.323,83.6708 264.5,84.5C 264.5,88.5 264.5,92.5 264.5,96.5C 277.837,96.6666 291.171,96.4999 304.5,96C 306.314,93.5185 306.98,90.6852 306.5,87.5C 308.11,87.7899 309.277,86.7899 310,84.5C 310.333,84.8333 310.667,85.1667 311,85.5C 312.5,84 314,82.5 315.5,81C 311.551,80.1932 311.551,79.6932 315.5,79.5C 319.02,80.1828 321.52,82.1828 323,85.5C 324.061,91.7243 323.394,97.7243 321,103.5C 318.749,105.377 316.249,106.877 313.5,108C 291.566,109.468 269.566,109.968 247.5,109.5C 247.5,94.5 247.5,79.5 247.5,64.5 Z"/></g>
<g><path style="opacity:1" fill="#de4d02" d="M 84.5,60.5 C 85.224,62.2184 85.8906,64.0517 86.5,66C 85.8528,69.2485 85.5195,72.5819 85.5,76C 85.9038,83.2135 86.7372,90.3802 88,97.5C 88.7504,98.1258 89.5838,98.6258 90.5,99C 91.0217,101.186 91.0217,103.519 90.5,106C 91.7958,108.761 92.9625,111.595 94,114.5C 94.9978,117.337 96.9978,119.003 100,119.5C 101.016,118.366 101.683,118.699 102,120.5C 105.422,118.642 108.922,118.642 112.5,120.5C 103.701,126.07 94.7006,131.404 85.5,136.5C 84.5023,111.339 84.1689,86.0055 84.5,60.5 Z"/></g>
<g><path style="opacity:1" fill="#f4f5f6" d="M 264.5,84.5 C 276.838,84.3335 289.171,84.5001 301.5,85C 303.452,85.3661 305.118,86.1995 306.5,87.5C 306.98,90.6852 306.314,93.5185 304.5,96C 291.171,96.4999 277.837,96.6666 264.5,96.5C 264.5,92.5 264.5,88.5 264.5,84.5 Z"/></g>
<g><path style="opacity:1" fill="#052f52" d="M 236.5,67.5 C 237.656,75.3225 237.823,83.3225 237,91.5C 235.412,102.753 228.912,108.92 217.5,110C 203.167,110.667 188.833,110.667 174.5,110C 166.131,109.287 160.298,105.12 157,97.5C 155.661,90.5736 155.161,83.5736 155.5,76.5C 156.458,76.9528 157.292,77.6195 158,78.5C 158.249,77.376 158.749,76.376 159.5,75.5C 164.389,74.9719 168.556,72.9719 172,69.5C 172.399,69.7284 172.565,70.0618 172.5,70.5C 172.334,76.5092 172.501,82.5092 173,88.5C 173.438,92.5668 175.605,95.0668 179.5,96C 190.5,96.6667 201.5,96.6667 212.5,96C 216.527,95.573 219.027,93.4064 220,89.5C 220.499,83.8431 220.666,78.1764 220.5,72.5C 222.506,71.8336 224.34,71.8336 226,72.5C 227.324,71.1198 228.657,70.7865 230,71.5C 232.14,70.2718 233.807,68.6051 235,66.5C 234.012,68.9199 234.345,71.2533 236,73.5C 236.495,71.5273 236.662,69.5273 236.5,67.5 Z"/></g>
<g><path style="opacity:1" fill="#6db0cb" d="M 57.5,87.5 C 59.0009,88.7515 60.6675,89.7515 62.5,90.5C 62.2648,91.0967 61.7648,91.4301 61,91.5C 58.1807,91.0179 55.6807,90.0179 53.5,88.5C 55.099,88.7678 56.4324,88.4345 57.5,87.5 Z"/></g>
<g><path style="opacity:1" fill="#f57200" d="M 132.5,56.5 C 132.664,59.1873 132.497,61.854 132,64.5C 129.068,73.9621 125.735,83.2954 122,92.5C 118.568,97.7686 114.068,101.769 108.5,104.5C 107.14,103.82 105.807,103.153 104.5,102.5C 104.5,102.167 104.5,101.833 104.5,101.5C 105.451,100.081 105.784,98.4147 105.5,96.5C 106.458,96.9528 107.292,97.6195 108,98.5C 111.91,96.5934 115.244,93.9267 118,90.5C 123.066,80.8708 125.9,70.8708 126.5,60.5C 127.584,61.6651 128.417,62.9984 129,64.5C 130.812,62.0793 130.646,60.0793 128.5,58.5C 129.514,57.3263 130.847,56.6596 132.5,56.5 Z"/></g>
<g><path style="opacity:1" fill="#045281" d="M 5.5,72.5 C 6.83333,73.5 8.16667,74.5 9.5,75.5C 13.2009,77.0116 16.5342,79.0116 19.5,81.5C 18.4991,82.7887 18.6658,84.1221 20,85.5C 21.7448,86.9557 23.5781,88.289 25.5,89.5C 26.2357,91.5405 27.0691,93.5405 28,95.5C 33.3419,101.017 38.1752,107.017 42.5,113.5C 44.1667,114.833 45.8333,116.167 47.5,117.5C 48.6422,116.174 49.9755,115.174 51.5,114.5C 52.492,121.982 52.8254,129.648 52.5,137.5C 52.1667,137.5 51.8333,137.5 51.5,137.5C 51.6621,135.473 51.4955,133.473 51,131.5C 50.3878,134.032 48.8878,134.865 46.5,134C 42.5423,129.696 38.209,125.863 33.5,122.5C 34.0253,121.808 34.6919,121.308 35.5,121C 32.5698,118.281 29.7365,115.447 27,112.5C 26.6667,113.167 26.3333,113.833 26,114.5C 25.3551,113.354 24.5217,112.354 23.5,111.5C 24.1667,111.167 24.8333,110.833 25.5,110.5C 23.0617,106.558 20.0617,103.058 16.5,100C 13.0838,98.75 10.4172,96.5833 8.5,93.5C 7.8869,94.9798 7.55357,96.3131 7.5,97.5C 6.71893,96.2713 6.21893,94.938 6,93.5C 5.50038,86.5079 5.33371,79.5079 5.5,72.5 Z"/></g>
<g><path style="opacity:1" fill="#e4793f" d="M 83.5,60.5 C 83.8333,60.5 84.1667,60.5 84.5,60.5C 84.1689,86.0055 84.5023,111.339 85.5,136.5C 85.5,137.167 85.1667,137.5 84.5,137.5C 83.5022,112.005 83.1689,86.3388 83.5,60.5 Z"/></g>
<g><path style="opacity:1" fill="#026297" d="M 19.5,81.5 C 30.0267,87.3498 40.5267,93.3498 51,99.5C 51.4993,104.489 51.6659,109.489 51.5,114.5C 49.9755,115.174 48.6422,116.174 47.5,117.5C 45.8333,116.167 44.1667,114.833 42.5,113.5C 38.1752,107.017 33.3419,101.017 28,95.5C 27.0691,93.5405 26.2357,91.5405 25.5,89.5C 23.5781,88.289 21.7448,86.9557 20,85.5C 18.6658,84.1221 18.4991,82.7887 19.5,81.5 Z"/></g>
<g><path style="opacity:1" fill="#2470a2" d="M 63.5,92.5 C 64.8333,92.5 66.1667,92.5 67.5,92.5C 67.5,111.167 67.5,129.833 67.5,148.5C 66.8286,141.51 65.4953,134.51 63.5,127.5C 61.4715,124.971 59.6381,122.304 58,119.5C 57.6667,113.167 57.3333,106.833 57,100.5C 56.8311,114.673 56.3311,128.673 55.5,142.5C 55.3334,127.83 55.5001,113.163 56,98.5C 58.8437,96.841 61.3437,94.841 63.5,92.5 Z"/></g>
<g><path style="opacity:1" fill="#96a4b0" d="M 370.5,90.5 C 363.833,90.5 357.167,90.5 350.5,90.5C 350.823,97.0221 350.49,103.355 349.5,109.5C 349.5,102.833 349.5,96.1667 349.5,89.5C 356.687,89.1755 363.687,89.5088 370.5,90.5 Z"/></g>
<g><path style="opacity:1" fill="#054266" d="M 5.5,71.5 C 5.5,71.8333 5.5,72.1667 5.5,72.5C 5.33371,79.5079 5.50038,86.5079 6,93.5C 6.21893,94.938 6.71893,96.2713 7.5,97.5C 7.55357,96.3131 7.8869,94.9798 8.5,93.5C 10.4172,96.5833 13.0838,98.75 16.5,100C 20.0617,103.058 23.0617,106.558 25.5,110.5C 24.8333,110.833 24.1667,111.167 23.5,111.5C 24.5217,112.354 25.3551,113.354 26,114.5C 26.3333,113.833 26.6667,113.167 27,112.5C 29.7365,115.447 32.5698,118.281 35.5,121C 34.6919,121.308 34.0253,121.808 33.5,122.5C 38.209,125.863 42.5423,129.696 46.5,134C 48.8878,134.865 50.3878,134.032 51,131.5C 51.4955,133.473 51.6621,135.473 51.5,137.5C 51.2172,138.289 50.7172,138.956 50,139.5C 42.0252,135.01 34.3585,130.01 27,124.5C 26.2061,121.169 24.0395,119.336 20.5,119C 15.3395,114.839 10.5061,110.339 6,105.5C 5.50098,109.821 5.33432,114.154 5.5,118.5C 5.5,121.5 5.5,124.5 5.5,127.5C 4.16667,108.833 4.16667,90.1667 5.5,71.5 Z"/></g>
<g><path style="opacity:1" fill="#cad2d5" d="M 78.5,83.5 C 79.6623,102.329 79.8289,121.329 79,140.5C 78.3292,141.252 77.4959,141.586 76.5,141.5C 77.6005,140.395 78.2671,139.062 78.5,137.5C 78.5,119.5 78.5,101.5 78.5,83.5 Z"/></g>
<g><path style="opacity:1" fill="#00264b" d="M 78.5,137.5 C 78.2671,139.062 77.6005,140.395 76.5,141.5C 75.1667,142.167 73.8333,142.833 72.5,143.5C 71.5033,126.341 71.17,109.008 71.5,91.5C 71.369,90.7611 71.5357,90.0944 72,89.5C 73.2988,89.9662 74.7988,89.9662 76.5,89.5C 77.2621,101.648 77.9288,117.648 78.5,137.5 Z"/></g>
<g><path style="opacity:1" fill="#53697c" d="M 70.5,91.5 C 70.8333,91.5 71.1667,91.5 71.5,91.5C 71.17,109.008 71.5033,126.341 72.5,143.5C 72.44,144.043 72.1067,144.376 71.5,144.5C 70.5005,126.846 70.1671,109.179 70.5,91.5 Z"/></g>
<g><path style="opacity:1" fill="#003557" d="M 51.5,137.5 C 51.8333,137.5 52.1667,137.5 52.5,137.5C 52.461,140.089 53.461,142.089 55.5,143.5C 57.679,143.84 59.5123,144.84 61,146.5C 61.3333,146.167 61.6667,145.833 62,145.5C 63.451,147.464 65.2843,148.797 67.5,149.5C 68.9952,149.989 70.3285,150.655 71.5,151.5C 70.8485,152.091 70.1818,152.757 69.5,153.5C 68.914,153.291 68.414,152.957 68,152.5C 65.3917,154.182 62.725,154.848 60,154.5C 55.9874,151.972 53.1541,148.472 51.5,144C 46.979,143.271 42.6457,141.937 38.5,140C 29.8386,134.09 21.6719,127.59 14,120.5C 13.6667,120.833 13.3333,121.167 13,121.5C 10.901,120.534 9.06765,119.2 7.5,117.5C 6.81654,117.863 6.14987,118.196 5.5,118.5C 5.33432,114.154 5.50098,109.821 6,105.5C 10.5061,110.339 15.3395,114.839 20.5,119C 24.0395,119.336 26.2061,121.169 27,124.5C 34.3585,130.01 42.0252,135.01 50,139.5C 50.7172,138.956 51.2172,138.289 51.5,137.5 Z"/></g>
<g><path style="opacity:1" fill="#005080" d="M 67.5,148.5 C 67.5,148.833 67.5,149.167 67.5,149.5C 65.2843,148.797 63.451,147.464 62,145.5C 61.6667,145.833 61.3333,146.167 61,146.5C 59.5123,144.84 57.679,143.84 55.5,143.5C 55.5,143.167 55.5,142.833 55.5,142.5C 56.3311,128.673 56.8311,114.673 57,100.5C 57.3333,106.833 57.6667,113.167 58,119.5C 59.6381,122.304 61.4715,124.971 63.5,127.5C 65.4953,134.51 66.8286,141.51 67.5,148.5 Z"/></g>
<g><path style="opacity:1" fill="#818081" d="M 276.5,129.5 C 274.429,128.191 271.929,127.525 269,127.5C 266.5,127.667 264,127.833 261.5,128C 263.708,128.191 265.708,128.691 267.5,129.5C 265.167,129.5 262.833,129.5 260.5,129.5C 260.5,128.5 260.5,127.5 260.5,126.5C 266.167,126.5 271.833,126.5 277.5,126.5C 277.737,127.791 277.404,128.791 276.5,129.5 Z"/></g>
<g><path style="opacity:1" fill="#7e7e7e" d="M 368.5,129.5 C 370.292,128.691 372.292,128.191 374.5,128C 369.5,127.333 364.5,127.333 359.5,128C 361.708,128.191 363.708,128.691 365.5,129.5C 363.167,129.5 360.833,129.5 358.5,129.5C 358.5,128.5 358.5,127.5 358.5,126.5C 364.167,126.5 369.833,126.5 375.5,126.5C 375.5,127.5 375.5,128.5 375.5,129.5C 373.167,129.5 370.833,129.5 368.5,129.5 Z"/></g>
<g><path style="opacity:1" fill="#8f928f" d="M 464.5,127.5 C 469.305,126.513 474.305,126.179 479.5,126.5C 479.737,127.791 479.404,128.791 478.5,129.5C 478.5,129.167 478.5,128.833 478.5,128.5C 474.03,127.514 469.363,127.181 464.5,127.5 Z"/></g>
<g><path style="opacity:1" fill="#616365" d="M 297.5,127.5 C 298.492,127.328 299.158,127.662 299.5,128.5C 298.833,130.167 298.167,131.833 297.5,133.5C 297.5,132.167 297.5,130.833 297.5,129.5C 294.5,129.5 291.5,129.5 288.5,129.5C 288.5,130.833 288.5,132.167 288.5,133.5C 291.167,133.5 293.833,133.5 296.5,133.5C 293.713,134.477 290.713,134.81 287.5,134.5C 287.5,132.5 287.5,130.5 287.5,128.5C 291.042,128.813 294.375,128.479 297.5,127.5 Z"/></g>
<g><path style="opacity:1" fill="#4d5155" d="M 339.5,126.5 C 343.828,126.037 347.828,126.87 351.5,129C 350.975,129.692 350.308,130.192 349.5,130.5C 346.562,129.425 343.562,129.259 340.5,130C 337.833,133 337.833,136 340.5,139C 343.894,139.752 347.227,139.585 350.5,138.5C 351.711,139.274 351.711,140.107 350.5,141C 346.5,141.667 342.5,141.667 338.5,141C 332.881,135.595 333.215,130.762 339.5,126.5 Z"/></g>
<g><path style="opacity:1" fill="#4c5053" d="M 164.5,126.5 C 167.187,126.336 169.854,126.503 172.5,127C 174.405,127.826 174.739,128.993 173.5,130.5C 169.892,129.407 166.225,129.24 162.5,130C 159.595,133.374 159.928,136.374 163.5,139C 167.045,139.717 170.545,139.55 174,138.5C 175.608,138.974 175.774,139.641 174.5,140.5C 170.223,141.606 165.89,141.772 161.5,141C 155.39,134.462 156.39,129.628 164.5,126.5 Z"/></g>
<g><path style="opacity:1" fill="#838284" d="M 323.5,127.5 C 324.209,126.596 325.209,126.263 326.5,126.5C 326.817,130.702 326.483,134.702 325.5,138.5C 326.08,134.351 325.414,130.684 323.5,127.5 Z"/></g>
<g><path style="opacity:1" fill="#353a43" d="M 368.5,129.5 C 368.5,133.5 368.5,137.5 368.5,141.5C 367.5,141.5 366.5,141.5 365.5,141.5C 365.5,137.5 365.5,133.5 365.5,129.5C 363.708,128.691 361.708,128.191 359.5,128C 364.5,127.333 369.5,127.333 374.5,128C 372.292,128.191 370.292,128.691 368.5,129.5 Z"/></g>
<g><path style="opacity:1" fill="#959493" d="M 427.5,127.5 C 426.5,127.5 425.5,127.5 424.5,127.5C 424.5,132.167 424.5,136.833 424.5,141.5C 423.513,136.695 423.179,131.695 423.5,126.5C 425.099,126.232 426.432,126.566 427.5,127.5 Z"/></g>
<g><path style="opacity:1" fill="#888888" d="M 228.5,141.5 C 228.827,136.786 228.493,132.12 227.5,127.5C 226.833,130.642 226.166,133.642 225.5,136.5C 225.5,133.167 225.5,129.833 225.5,126.5C 226.833,126.5 228.167,126.5 229.5,126.5C 229.821,131.695 229.487,136.695 228.5,141.5 Z"/></g>
<g><path style="opacity:1" fill="#3c4047" d="M 276.5,129.5 C 274.5,129.5 272.5,129.5 270.5,129.5C 270.5,133.5 270.5,137.5 270.5,141.5C 269.5,141.5 268.5,141.5 267.5,141.5C 267.5,137.5 267.5,133.5 267.5,129.5C 265.708,128.691 263.708,128.191 261.5,128C 264,127.833 266.5,127.667 269,127.5C 271.929,127.525 274.429,128.191 276.5,129.5 Z"/></g>
<g><path style="opacity:1" fill="#949491" d="M 525.5,127.5 C 521.5,127.5 517.5,127.5 513.5,127.5C 513.5,132.167 513.5,136.833 513.5,141.5C 512.513,136.695 512.179,131.695 512.5,126.5C 517.032,126.182 521.366,126.515 525.5,127.5 Z"/></g>
<g><path style="opacity:1" fill="#757575" d="M 438.5,127.5 C 439.209,126.596 440.209,126.263 441.5,126.5C 441.821,131.695 441.487,136.695 440.5,141.5C 441.103,136.381 440.436,131.715 438.5,127.5 Z"/></g>
<g><path style="opacity:1" fill="#0f4871" d="M 108.5,141.5 C 108.608,139.777 108.108,138.11 107,136.5C 105.172,137.752 103.339,137.752 101.5,136.5C 116.684,128.656 131.851,120.656 147,112.5C 147.617,113.449 147.451,114.282 146.5,115C 134.23,124.443 121.563,133.276 108.5,141.5 Z"/></g>
<g><path style="opacity:1" fill="#454c53" d="M 323.5,127.5 C 325.414,130.684 326.08,134.351 325.5,138.5C 324.942,139.79 323.942,140.623 322.5,141C 310.096,143.74 305.763,138.907 309.5,126.5C 310.5,126.5 311.5,126.5 312.5,126.5C 312.335,130.182 312.501,133.848 313,137.5C 315.76,139.703 318.76,140.036 322,138.5C 322.177,134.644 322.677,130.977 323.5,127.5 Z"/></g>
<g><path style="opacity:1" fill="#454d52" d="M 383.5,126.5 C 384.5,126.5 385.5,126.5 386.5,126.5C 386.5,131.5 386.5,136.5 386.5,141.5C 385.5,141.5 384.5,141.5 383.5,141.5C 383.5,136.5 383.5,131.5 383.5,126.5 Z"/></g>
<g><path style="opacity:1" fill="#494d52" d="M 400.5,126.5 C 406.386,125.343 411.219,127.01 415,131.5C 416.057,135.886 414.557,139.053 410.5,141C 406.833,141.667 403.167,141.667 399.5,141C 393.954,135.676 394.288,130.843 400.5,126.5 Z"/></g>
<g><path style="opacity:1" fill="#f0f0ef" d="M 400.5,129.5 C 403.518,129.335 406.518,129.502 409.5,130C 413.142,138.04 410.475,141.04 401.5,139C 397.846,136.209 397.513,133.043 400.5,129.5 Z"/></g>
<g><path style="opacity:1" fill="#393f45" d="M 427.5,127.5 C 431.146,130.479 434.479,133.812 437.5,137.5C 438.487,134.232 438.82,130.898 438.5,127.5C 440.436,131.715 441.103,136.381 440.5,141.5C 439.448,141.649 438.448,141.483 437.5,141C 434.318,137.651 430.985,134.484 427.5,131.5C 427.104,135.263 426.104,138.597 424.5,141.5C 424.5,136.833 424.5,132.167 424.5,127.5C 425.5,127.5 426.5,127.5 427.5,127.5 Z"/></g>
<g><path style="opacity:1" fill="#353a41" d="M 297.5,127.5 C 294.375,128.479 291.042,128.813 287.5,128.5C 287.5,130.5 287.5,132.5 287.5,134.5C 290.713,134.81 293.713,134.477 296.5,133.5C 296.833,133.5 297.167,133.5 297.5,133.5C 298.167,131.833 298.833,130.167 299.5,128.5C 301.188,131.684 300.521,134.35 297.5,136.5C 298.648,138.149 299.981,139.649 301.5,141C 298.006,141.861 295.673,140.528 294.5,137C 292.19,136.503 289.857,136.337 287.5,136.5C 287.785,138.288 287.452,139.955 286.5,141.5C 285.507,136.88 285.173,132.214 285.5,127.5C 289.5,127.5 293.5,127.5 297.5,127.5 Z"/></g>
<g><path style="opacity:1" fill="#f3f3f3" d="M 297.5,133.5 C 297.167,133.5 296.833,133.5 296.5,133.5C 293.833,133.5 291.167,133.5 288.5,133.5C 288.5,132.167 288.5,130.833 288.5,129.5C 291.5,129.5 294.5,129.5 297.5,129.5C 297.5,130.833 297.5,132.167 297.5,133.5 Z"/></g>
<g><path style="opacity:1" fill="#42484d" d="M 525.5,127.5 C 529.146,128.462 530.313,130.795 529,134.5C 525.078,136.312 520.911,136.979 516.5,136.5C 516.5,138.167 516.5,139.833 516.5,141.5C 515.5,141.5 514.5,141.5 513.5,141.5C 513.5,136.833 513.5,132.167 513.5,127.5C 517.5,127.5 521.5,127.5 525.5,127.5 Z"/></g>
<g><path style="opacity:1" fill="#ecedeb" d="M 516.5,129.5 C 519.5,129.5 522.5,129.5 525.5,129.5C 525.5,131.167 525.5,132.833 525.5,134.5C 522.5,134.5 519.5,134.5 516.5,134.5C 516.5,132.833 516.5,131.167 516.5,129.5 Z"/></g>
<g><path style="opacity:1" fill="#a6a5a5" d="M 215.5,127.5 C 214.5,127.5 213.5,127.5 212.5,127.5C 212.5,132.167 212.5,136.833 212.5,141.5C 211.513,136.695 211.179,131.695 211.5,126.5C 213.099,126.232 214.432,126.566 215.5,127.5 Z"/></g>
<g><path style="opacity:1" fill="#373f44" d="M 215.5,127.5 C 218.833,130.5 222.167,133.5 225.5,136.5C 226.166,133.642 226.833,130.642 227.5,127.5C 228.493,132.12 228.827,136.786 228.5,141.5C 227.448,141.649 226.448,141.483 225.5,141C 222.631,137.962 219.631,135.129 216.5,132.5C 216.44,131.957 216.107,131.624 215.5,131.5C 214.513,134.768 214.18,138.102 214.5,141.5C 213.833,141.5 213.167,141.5 212.5,141.5C 212.5,136.833 212.5,132.167 212.5,127.5C 213.5,127.5 214.5,127.5 215.5,127.5 Z"/></g>
<g><path style="opacity:1" fill="#44494e" d="M 241.5,126.5 C 245.722,126.078 249.722,126.745 253.5,128.5C 253.167,129.5 252.5,130.167 251.5,130.5C 248.242,129.583 244.909,129.249 241.5,129.5C 241.5,130.5 241.5,131.5 241.5,132.5C 245.273,132.263 248.94,132.763 252.5,134C 255.192,136.632 254.859,138.966 251.5,141C 247.5,141.667 243.5,141.667 239.5,141C 238.289,140.107 238.289,139.274 239.5,138.5C 243.108,139.593 246.775,139.76 250.5,139C 251.833,138 251.833,137 250.5,136C 247.167,135.667 243.833,135.333 240.5,135C 237.665,131.695 237.999,128.862 241.5,126.5 Z"/></g>
<g><path style="opacity:1" fill="#595e60" d="M 478.5,128.5 C 478.5,128.833 478.5,129.167 478.5,129.5C 474.833,129.5 471.167,129.5 467.5,129.5C 467.5,130.5 467.5,131.5 467.5,132.5C 470.85,132.335 474.183,132.502 477.5,133C 477.957,133.414 478.291,133.914 478.5,134.5C 474.893,135.489 471.226,135.823 467.5,135.5C 467.5,136.5 467.5,137.5 467.5,138.5C 467.5,138.833 467.5,139.167 467.5,139.5C 466.518,136.038 466.185,132.371 466.5,128.5C 470.5,128.5 474.5,128.5 478.5,128.5 Z"/></g>
<g><path style="opacity:1" fill="#494d52" d="M 488.5,126.5 C 492.514,126.334 496.514,126.501 500.5,127C 503.379,128.666 504.212,131.166 503,134.5C 502.075,135.047 501.242,135.713 500.5,136.5C 501.648,138.149 502.981,139.649 504.5,141C 501.208,141.896 498.875,140.729 497.5,137.5C 495.257,136.526 492.924,136.192 490.5,136.5C 490.5,138.167 490.5,139.833 490.5,141.5C 489.5,141.5 488.5,141.5 487.5,141.5C 487.221,136.405 487.555,131.405 488.5,126.5 Z"/></g>
<g><path style="opacity:1" fill="#959593" d="M 491.5,129.5 C 491.5,130.833 491.5,132.167 491.5,133.5C 494.167,133.5 496.833,133.5 499.5,133.5C 496.713,134.477 493.713,134.81 490.5,134.5C 490.216,132.585 490.549,130.919 491.5,129.5 Z"/></g>
<g><path style="opacity:1" fill="#f4f3f3" d="M 491.5,129.5 C 494.5,129.5 497.5,129.5 500.5,129.5C 500.768,131.099 500.434,132.432 499.5,133.5C 496.833,133.5 494.167,133.5 491.5,133.5C 491.5,132.167 491.5,130.833 491.5,129.5 Z"/></g>
<g><path style="opacity:1" fill="#939293" d="M 216.5,132.5 C 215.833,135.5 215.167,138.5 214.5,141.5C 214.18,138.102 214.513,134.768 215.5,131.5C 216.107,131.624 216.44,131.957 216.5,132.5 Z"/></g>
<g><path style="opacity:1" fill="#45494e" d="M 187.5,126.5 C 193.701,125.285 198.868,126.952 203,131.5C 204.057,135.886 202.557,139.053 198.5,141C 194.044,141.867 189.711,141.534 185.5,140C 182.397,134.886 183.064,130.386 187.5,126.5 Z"/></g>
<g><path style="opacity:1" fill="#f0f0ef" d="M 188.5,129.5 C 191.518,129.335 194.518,129.502 197.5,130C 199.444,132.153 199.944,134.653 199,137.5C 195.77,139.691 192.27,140.024 188.5,138.5C 185.845,135.466 185.845,132.466 188.5,129.5 Z"/></g>
<g><path style="opacity:1" fill="#3b4247" d="M 464.5,127.5 C 469.363,127.181 474.03,127.514 478.5,128.5C 474.5,128.5 470.5,128.5 466.5,128.5C 466.185,132.371 466.518,136.038 467.5,139.5C 471.226,139.177 474.893,139.511 478.5,140.5C 473.88,141.493 469.214,141.827 464.5,141.5C 464.5,136.833 464.5,132.167 464.5,127.5 Z"/></g>
<g><path style="opacity:1" fill="#052b4d" d="M 71.5,151.5 C 71.6293,156.13 71.9626,160.797 72.5,165.5C 72.5,165.833 72.5,166.167 72.5,166.5C 71.8333,166.5 71.1667,166.5 70.5,166.5C 48.9991,153.248 27.3324,140.248 5.5,127.5C 5.5,124.5 5.5,121.5 5.5,118.5C 6.14987,118.196 6.81654,117.863 7.5,117.5C 9.06765,119.2 10.901,120.534 13,121.5C 13.3333,121.167 13.6667,120.833 14,120.5C 21.6719,127.59 29.8386,134.09 38.5,140C 42.6457,141.937 46.979,143.271 51.5,144C 53.1541,148.472 55.9874,151.972 60,154.5C 62.725,154.848 65.3917,154.182 68,152.5C 68.414,152.957 68.914,153.291 69.5,153.5C 70.1818,152.757 70.8485,152.091 71.5,151.5 Z"/></g>
<g><path style="opacity:1" fill="#cfd0cf" d="M 467.5,139.5 C 467.5,139.167 467.5,138.833 467.5,138.5C 471.5,138.5 475.5,138.5 479.5,138.5C 479.5,139.833 479.5,141.167 479.5,142.5C 474.305,142.821 469.305,142.487 464.5,141.5C 469.214,141.827 473.88,141.493 478.5,140.5C 474.893,139.511 471.226,139.177 467.5,139.5 Z"/></g>
<g><path style="opacity:1" fill="#06355b" d="M 101.5,136.5 C 103.339,137.752 105.172,137.752 107,136.5C 108.108,138.11 108.608,139.777 108.5,141.5C 96.7949,149.859 84.7949,157.859 72.5,165.5C 71.9626,160.797 71.6293,156.13 71.5,151.5C 81.7367,147.048 91.7367,142.048 101.5,136.5 Z"/></g>
<g><path style="opacity:1" fill="#e2e0dd" d="M 62.5,166.5 C 56.7945,166.171 51.1278,166.505 45.5,167.5C 46.0281,170.967 48.0281,172.633 51.5,172.5C 57.6281,172.097 63.6281,171.097 69.5,169.5C 70.2975,169.043 70.6309,168.376 70.5,167.5C 70.5,167.167 70.5,166.833 70.5,166.5C 71.1667,166.5 71.8333,166.5 72.5,166.5C 78.3193,167.328 84.3193,167.828 90.5,168C 90.9574,168.414 91.2907,168.914 91.5,169.5C 87.1573,171.718 82.6573,172.384 78,171.5C 76.9412,171.63 76.1079,172.13 75.5,173C 61.7961,173.862 48.1294,173.528 34.5,172C 33.5,171 32.5,170 31.5,169C 32.8333,168.333 32.8333,167.667 31.5,167C 36.6644,165.855 41.9977,165.355 47.5,165.5C 52.6782,165.501 57.6782,165.834 62.5,166.5 Z"/></g>
<g><path style="opacity:1" fill="#cdc9c4" d="M 62.5,166.5 C 65.0961,167.265 67.7628,167.599 70.5,167.5C 70.6309,168.376 70.2975,169.043 69.5,169.5C 63.6281,171.097 57.6281,172.097 51.5,172.5C 48.0281,172.633 46.0281,170.967 45.5,167.5C 51.1278,166.505 56.7945,166.171 62.5,166.5 Z"/></g>
</svg>
